<?xml version="1.0" encoding="UTF-8"?>
<svg id="_레이어_1" data-name="레이어_1" xmlns="http://www.w3.org/2000/svg" version="1.1" xmlns:xlink="http://www.w3.org/1999/xlink" viewBox="0 0 716.11 210.01">
  <!-- Generator: Adobe Illustrator 30.1.0, SVG Export Plug-In . SVG Version: 2.1.1 Build 136)  -->
  <defs>
    <style>
      .st0 {
        fill: #727171;
      }

      .st1 {
        fill: #231815;
      }

      .st2 {
        fill: url(#_무제_그라디언트_906);
      }
    </style>
    <linearGradient id="_무제_그라디언트_906" data-name="무제 그라디언트 906" x1="0" y1="105" x2="183.74" y2="105" gradientUnits="userSpaceOnUse">
      <stop offset="0" stop-color="#001245"/>
      <stop offset=".52" stop-color="#15458b"/>
    </linearGradient>
  </defs>
  <path class="st2" d="M65.52,84.63h94.59c0,26.01-21.09,47.1-47.1,47.1h-49.23c-42.37,0-45.36,40.92-45.36,40.92v-40.92h0c0-26.01,21.09-47.1,47.1-47.1ZM36.86,185.22h0v24.79s1.81-24.79,27.48-24.79h29.83c15.76,0,28.53-12.77,28.53-28.53h0s-57.31,0-57.31,0c-15.76,0-28.53,12.77-28.53,28.53ZM0,61.08h0v53.06s3.88-53.06,58.82-53.06h63.85C156.4,61.08,183.74,33.73,183.74,0h0s-122.67,0-122.67,0C27.34,0,0,27.34,0,61.08Z"/>
  <g>
    <path class="st1" d="M296,37.99h-12v54.18c5.12-.27,10.11-.74,14.96-1.35l1.08,12.41c-24.93,4.32-53.24,4.86-74.27,4.86l-1.62-14.16,13.89-.14v-55.81h-10.52v-13.88h68.48v13.88ZM267.42,93.12v-55.13h-12.67v55.54l12.67-.41ZM328.21,135.99h-16.99v-64.3h-18.87v-13.74h18.87V13.33h16.99v122.66Z"/>
    <path class="st1" d="M374.93,58.21c15.3-.14,30.93-1.29,47.45-4.18l2.29,13.89c-20.08,3.64-38.41,4.72-56.61,4.58h-10.11V18.45h16.99v39.76ZM454.44,113.47h-64.15v7.42h67.12v13.75h-84.37v-34.24h64.15v-6.88h-64.29v-13.48h81.54v33.43ZM454.44,75.46h-17.12v-31.13h-30.32v-13.75h30.32V13.33h17.12v62.14Z"/>
    <path class="st1" d="M540.8,45.81h22.91V13.46h17.12v89.24h-17.12v-43.26h-22.91v22.91h-58.23V23.3h58.23v22.51ZM583.79,133.83h-84.37v-39.63h17.25v25.88h67.12v13.75ZM499.68,68.86h24.26v-31.94h-24.26v31.94Z"/>
    <path class="st1" d="M716.11,120.89h-112.29v-14.15h112.29v14.15ZM712.07,71.42l-7.56,14.29c-21.36-4.24-37.27-16.24-45.15-32.07-8.16,15.7-24.07,27.76-45.29,32.07l-7.42-14.29c27.23-4.85,43.27-24.13,43.41-41.92v-8.89h18.32v8.89c0,17.93,15.91,37.2,43.69,41.92Z"/>
  </g>
  <g>
    <path class="st0" d="M224.69,179.21l7.41-20.41h2.17l7.43,20.41h-2.11l-6.32-17.81h-.16l-6.32,17.81h-2.09ZM238.28,171.36v1.78h-10.19v-1.78h10.19Z"/>
    <path class="st0" d="M255.19,178.54c-.96-.67-1.7-1.59-2.23-2.8s-.8-2.59-.8-4.14.27-2.95.8-4.16c.53-1.19,1.29-2.12,2.24-2.76.97-.66,2.07-.98,3.32-.98.87,0,1.61.16,2.23.45.61.31,1.1.67,1.44,1.09s.66.91.96,1.5h.14v-7.94h1.95v20.41h-1.89v-2.76h-.2c-.31.59-.64,1.09-.98,1.5-.34.43-.82.79-1.44,1.1s-1.36.47-2.24.47c-1.23,0-2.34-.33-3.3-.98ZM261.21,176.98c.7-.53,1.23-1.26,1.6-2.21.36-.93.54-2,.54-3.23s-.18-2.28-.53-3.19c-.36-.91-.89-1.64-1.58-2.16-.7-.52-1.54-.78-2.51-.78s-1.79.28-2.49.79c-.69.53-1.23,1.26-1.59,2.19-.37.93-.55,1.97-.55,3.14s.18,2.26.55,3.19c.36.93.9,1.67,1.59,2.23.7.55,1.53.81,2.49.81s1.79-.26,2.48-.79Z"/>
    <path class="st0" d="M284.77,179.21h-2.04l-5.58-15.3h2.09l4.46,12.8h.13l4.47-12.8h2.08l-5.61,15.3Z"/>
    <path class="st0" d="M303.91,178.54c-1.06-.67-1.87-1.59-2.45-2.78-.57-1.19-.85-2.57-.85-4.11s.28-2.9.85-4.11c.58-1.23,1.37-2.16,2.4-2.83,1.02-.69,2.19-1.02,3.5-1.02,1.16,0,2.24.28,3.23.83.99.53,1.78,1.38,2.38,2.52.6,1.14.89,2.54.89,4.19v.9h-11.95v-1.66h10.02c0-.97-.19-1.83-.57-2.59s-.93-1.38-1.62-1.81c-.7-.45-1.48-.67-2.37-.67s-1.77.26-2.5.74c-.73.5-1.3,1.17-1.72,2-.41.85-.61,1.76-.61,2.73v1.02c0,1.19.22,2.24.63,3.12.41.9,1.01,1.59,1.78,2.05.76.48,1.66.72,2.68.72.66,0,1.26-.1,1.78-.29.53-.21.96-.47,1.31-.76.35-.31.62-.64.81-1h2.06c-.24.71-.63,1.35-1.17,1.92s-1.23,1.02-2.04,1.36c-.81.33-1.73.5-2.74.5-1.41,0-2.65-.33-3.71-.98Z"/>
    <path class="st0" d="M325.88,163.91h1.86v2.36h.14c.31-.79.84-1.43,1.59-1.9.76-.47,1.6-.71,2.54-.71.37,0,.7.02,1,.05v1.92c-.08-.02-.23-.03-.47-.07-.22-.02-.45-.03-.67-.03-.76,0-1.45.17-2.07.5s-1.1.79-1.47,1.38c-.35.59-.53,1.24-.53,1.98v9.82h-1.92v-15.3Z"/>
    <path class="st0" d="M351.26,165.55h-7.43v-1.64h7.43v1.64ZM348.05,160.25v14.89c0,.6.09,1.09.3,1.45.2.36.47.6.8.76s.72.24,1.15.24.84-.02,1.27-.05v1.79c-.39.07-.87.1-1.45.1-.69,0-1.34-.16-1.95-.45-.6-.31-1.1-.74-1.48-1.33s-.57-1.28-.57-2.07v-15.34h1.93Z"/>
    <path class="st0" d="M363.66,161.13c-.22-.12-.39-.29-.51-.5s-.18-.43-.18-.67.06-.47.18-.66c.12-.21.29-.36.51-.48s.44-.17.69-.17c.27,0,.52.05.73.17s.38.28.5.48c.13.19.19.41.19.66s-.06.47-.19.67c-.12.21-.28.38-.5.5s-.47.17-.73.17c-.25,0-.47-.05-.69-.17ZM363.41,163.91h1.92v15.3h-1.92v-15.3Z"/>
    <path class="st0" d="M385.51,165.98c-.58-.41-1.32-.62-2.24-.62-.66,0-1.26.1-1.79.33s-.94.53-1.24.93-.45.85-.45,1.35c0,.59.22,1.09.68,1.5s1.15.72,2.08.95l2.31.59c1.29.31,2.26.79,2.92,1.47.65.69.97,1.54.97,2.57,0,.86-.22,1.64-.68,2.31-.46.69-1.11,1.23-1.98,1.6-.87.38-1.9.57-3.09.57-1.08,0-2.02-.17-2.81-.48-.79-.33-1.43-.81-1.92-1.43-.48-.64-.79-1.4-.92-2.29h2.02c.16.83.54,1.45,1.15,1.88.6.41,1.41.64,2.44.64.76,0,1.43-.12,2.01-.33.58-.22,1.02-.53,1.34-.93.31-.41.47-.88.47-1.41,0-.62-.22-1.14-.65-1.57-.44-.41-1.1-.72-1.99-.91l-2.34-.57c-1.29-.31-2.26-.81-2.93-1.5s-1.01-1.54-1.01-2.54c0-.85.23-1.59.69-2.26.46-.66,1.1-1.17,1.91-1.55.81-.36,1.75-.55,2.81-.55.97,0,1.85.16,2.6.5.76.33,1.36.79,1.82,1.4s.73,1.29.84,2.09h-1.9c-.17-.74-.54-1.31-1.11-1.71Z"/>
    <path class="st0" d="M401.04,161.13c-.22-.12-.39-.29-.51-.5s-.18-.43-.18-.67.06-.47.18-.66c.12-.21.29-.36.51-.48s.44-.17.69-.17c.27,0,.52.05.73.17s.38.28.5.48c.13.19.19.41.19.66s-.06.47-.19.67c-.12.21-.28.38-.5.5s-.47.17-.73.17c-.25,0-.47-.05-.69-.17ZM400.78,163.91h1.92v15.3h-1.92v-15.3Z"/>
    <path class="st0" d="M417.42,179.21h-1.92v-15.3h1.86v2.42h.16c.39-.83.97-1.47,1.73-1.93.75-.45,1.68-.67,2.8-.67,1.04,0,1.95.21,2.73.64s1.36,1.05,1.79,1.9.64,1.88.64,3.07v9.89h-1.92v-9.77c0-.81-.16-1.54-.45-2.12-.31-.6-.74-1.07-1.31-1.4s-1.24-.48-2.02-.48-1.49.17-2.11.52-1.1.83-1.45,1.48c-.35.64-.53,1.4-.53,2.26v9.51Z"/>
    <path class="st0" d="M442.88,184.78c-.9-.31-1.62-.79-2.16-1.4-.55-.62-.9-1.36-1.02-2.24h2.02c.19.79.66,1.4,1.4,1.81.74.4,1.67.6,2.8.6,1.43,0,2.54-.33,3.3-1,.78-.67,1.16-1.69,1.16-3.05v-3.4h-.16c-.26.55-.57,1.04-.93,1.45-.38.41-.86.78-1.5,1.05-.62.29-1.36.45-2.23.45-1.23,0-2.31-.31-3.26-.93-.97-.62-1.73-1.5-2.26-2.66-.55-1.16-.81-2.5-.81-4.05s.26-2.88.79-4.04c.53-1.17,1.28-2.09,2.24-2.73.95-.64,2.07-.95,3.33-.95.86,0,1.6.16,2.23.45s1.09.64,1.41,1.04c.35.4.69.91,1.04,1.55h.16v-2.83h1.88v15.7c0,1.24-.28,2.29-.81,3.14s-1.29,1.48-2.24,1.9c-.97.41-2.07.62-3.33.62-1.12,0-2.14-.16-3.04-.48ZM448.28,176.61c.69-.48,1.23-1.14,1.59-2.02.36-.86.55-1.9.55-3.11s-.19-2.24-.55-3.16c-.36-.9-.88-1.62-1.57-2.12-.69-.52-1.54-.78-2.5-.78s-1.79.28-2.5.79c-.69.53-1.23,1.26-1.59,2.17s-.55,1.93-.55,3.09.19,2.16.55,3.04.9,1.57,1.59,2.05c.71.48,1.54.74,2.5.74s1.78-.24,2.48-.71Z"/>
    <path class="st0" d="M482.95,178.76c-.95-.48-1.69-1.16-2.23-2-.52-.86-.78-1.81-.78-2.88,0-.78.16-1.47.47-2.07.31-.62.76-1.21,1.33-1.76.59-.53,1.33-1.14,2.24-1.79l3.02-2.23c.72-.52,1.26-1.02,1.6-1.5.33-.47.5-1.04.5-1.71,0-.43-.12-.85-.35-1.24s-.55-.71-.97-.95-.9-.36-1.41-.36-1.02.14-1.47.41c-.45.26-.81.62-1.07,1.07s-.38.91-.38,1.41c0,.38.09.78.28,1.19.21.41.45.83.74,1.24s.71.93,1.21,1.57c.14.16.28.33.47.55l9.33,11.49h-2.31l-8.09-9.85c-.24-.31-.48-.62-.74-.93-.69-.83-1.21-1.5-1.57-2-.38-.52-.67-1.04-.9-1.59-.22-.53-.33-1.1-.33-1.69,0-.88.19-1.67.6-2.36s.97-1.23,1.69-1.62c.72-.38,1.55-.59,2.47-.59s1.76.19,2.47.57c.72.4,1.28.9,1.66,1.54.4.64.59,1.35.59,2.14,0,.9-.22,1.69-.67,2.4-.45.72-1.14,1.43-2.09,2.14l-3.76,2.81c-.64.47-1.14.91-1.54,1.38-.38.45-.64.86-.81,1.26-.17.38-.26.74-.26,1.07,0,.69.19,1.35.55,1.93.38.59.88,1.07,1.54,1.41s1.4.53,2.21.53c1.1,0,2.14-.29,3.11-.9.95-.59,1.73-1.41,2.33-2.48s.93-2.31,1-3.69l1.85.02c-.02,1.04-.17,1.95-.41,2.73s-.53,1.41-.85,1.9c-.33.5-.69.95-1.07,1.36-.09.1-.16.21-.22.29-.03.05-.07.1-.12.14-.03.05-.09.1-.12.16-.66.71-1.47,1.24-2.45,1.64-.97.38-1.97.57-2.98.57-1.24,0-2.33-.24-3.3-.72Z"/>
    <path class="st0" d="M524.77,158.8l7.28,17.55h.21l7.28-17.55h2.33v20.41h-1.88v-16.25h-.17l-6.78,16.25h-1.79l-6.78-16.25h-.14v16.25h-1.9v-20.41h2.35Z"/>
    <path class="st0" d="M562.14,171.91l-1.6.1c-1.35.1-2.35.4-3,.9-.67.5-1,1.21-1,2.09,0,.59.14,1.09.43,1.52.31.41.71.74,1.24.97.52.22,1.12.35,1.78.35.9,0,1.69-.21,2.36-.6.69-.4,1.21-.93,1.59-1.6.38-.69.57-1.43.57-2.24v-4.68c0-.69-.14-1.28-.43-1.78-.28-.5-.69-.88-1.26-1.14-.55-.26-1.23-.38-2.04-.38-.97,0-1.79.19-2.45.6-.67.41-1.09.97-1.28,1.67h-2c.12-.79.43-1.5.95-2.1s1.21-1.07,2.04-1.4c.85-.33,1.79-.48,2.83-.48.93,0,1.79.16,2.61.45.83.29,1.52.83,2.09,1.6s.85,1.81.85,3.11v10.35h-1.9v-2.36h-.12c-.22.47-.53.9-.97,1.31-.41.41-.93.74-1.57,1-.64.28-1.36.4-2.17.4-.95,0-1.79-.17-2.55-.55-.78-.36-1.38-.9-1.83-1.6s-.67-1.52-.67-2.47c0-1.5.5-2.61,1.5-3.3,1.02-.71,2.4-1.1,4.12-1.24.43-.03,1.36-.1,2.81-.19l1.62-.07.02,1.57c-.14.02-.98.09-2.55.21Z"/>
    <path class="st0" d="M579.22,163.91h1.86v2.36h.14c.31-.79.83-1.43,1.59-1.9s1.6-.71,2.54-.71c.36,0,.69.02,1,.05v1.92c-.09-.02-.24-.03-.47-.07-.22-.02-.45-.03-.67-.03-.76,0-1.45.17-2.07.5s-1.1.79-1.47,1.38-.53,1.24-.53,1.98v9.82h-1.92v-15.3Z"/>
    <path class="st0" d="M597.51,158.8h1.92v20.41h-1.92v-20.41ZM599.23,171.01h.41l7.04-7.11h2.42l-7.09,7.13-.19.03-2.55,2.42-.03-2.47ZM600.94,171.41l1.35-1.33,7.21,9.13h-2.43l-6.13-7.8Z"/>
    <path class="st0" d="M622.41,178.54c-1.05-.67-1.86-1.59-2.45-2.78-.57-1.19-.85-2.57-.85-4.11s.28-2.9.85-4.11c.59-1.23,1.38-2.16,2.4-2.83,1.02-.69,2.19-1.02,3.5-1.02,1.17,0,2.24.28,3.23.83,1,.53,1.78,1.38,2.38,2.52s.9,2.54.9,4.19v.9h-11.96v-1.66h10.02c0-.97-.19-1.83-.57-2.59-.4-.78-.93-1.38-1.62-1.81-.71-.45-1.48-.67-2.38-.67s-1.76.26-2.5.74c-.72.5-1.29,1.17-1.71,2-.41.85-.62,1.76-.62,2.73v1.02c0,1.19.22,2.24.64,3.12.41.9,1,1.59,1.78,2.05.76.48,1.66.72,2.67.72.67,0,1.26-.1,1.78-.29.53-.21.97-.47,1.31-.76.36-.31.62-.64.81-1h2.07c-.24.71-.64,1.35-1.17,1.92-.55.57-1.23,1.02-2.05,1.36-.81.33-1.73.5-2.74.5-1.4,0-2.64-.33-3.71-.98Z"/>
    <path class="st0" d="M650.53,165.55h-7.44v-1.64h7.44v1.64ZM647.32,160.25v14.89c0,.6.09,1.09.29,1.45s.47.6.81.76c.33.16.71.24,1.14.24s.85-.02,1.28-.05v1.79c-.4.07-.88.1-1.45.1-.69,0-1.35-.16-1.95-.45-.6-.31-1.1-.74-1.48-1.33s-.57-1.28-.57-2.07v-15.34h1.93Z"/>
    <path class="st0" d="M662.93,161.13c-.22-.12-.4-.29-.52-.5s-.17-.43-.17-.67.05-.47.17-.66c.12-.21.29-.36.52-.48.21-.12.43-.17.69-.17s.52.05.72.17c.22.12.38.28.5.48.14.19.19.41.19.66s-.05.47-.19.67c-.12.21-.28.38-.5.5-.21.12-.47.17-.72.17s-.48-.05-.69-.17ZM662.68,163.91h1.92v15.3h-1.92v-15.3Z"/>
    <path class="st0" d="M679.31,179.21h-1.92v-15.3h1.86v2.42h.16c.38-.83.97-1.47,1.73-1.93.74-.45,1.67-.67,2.8-.67,1.04,0,1.95.21,2.73.64s1.36,1.05,1.79,1.9.64,1.88.64,3.07v9.89h-1.92v-9.77c0-.81-.16-1.54-.45-2.12-.31-.6-.74-1.07-1.31-1.4s-1.24-.48-2.02-.48-1.5.17-2.12.52-1.1.83-1.45,1.48c-.35.64-.52,1.4-.52,2.26v9.51Z"/>
    <path class="st0" d="M704.77,184.78c-.9-.31-1.62-.79-2.17-1.4-.55-.62-.88-1.36-1-2.24h2c.19.79.66,1.4,1.4,1.81.74.4,1.67.6,2.81.6,1.41,0,2.52-.33,3.3-1,.76-.67,1.16-1.69,1.16-3.05v-3.4h-.16c-.28.55-.59,1.04-.95,1.45s-.86.78-1.48,1.05c-.62.29-1.36.45-2.24.45-1.21,0-2.29-.31-3.26-.93-.95-.62-1.71-1.5-2.26-2.66-.53-1.16-.81-2.5-.81-4.05s.28-2.88.81-4.04c.53-1.17,1.28-2.09,2.23-2.73.97-.64,2.07-.95,3.33-.95.88,0,1.62.16,2.24.45.6.29,1.09.64,1.41,1.04s.67.91,1.02,1.55h.16v-2.83h1.9v15.7c0,1.24-.28,2.29-.81,3.14-.55.85-1.29,1.48-2.26,1.9-.95.41-2.05.62-3.31.62-1.14,0-2.14-.16-3.04-.48ZM710.16,176.61c.69-.48,1.23-1.14,1.59-2.02.38-.86.55-1.9.55-3.11s-.17-2.24-.53-3.16c-.36-.9-.9-1.62-1.59-2.12-.69-.52-1.52-.78-2.5-.78s-1.79.28-2.48.79c-.69.53-1.23,1.26-1.59,2.17-.38.91-.55,1.93-.55,3.09s.17,2.16.55,3.04c.36.88.9,1.57,1.59,2.05s1.52.74,2.48.74,1.79-.24,2.48-.71Z"/>
  </g>
</svg>