<svg width="2417" height="300" viewBox="0 0 2417 300" fill="none" xmlns="http://www.w3.org/2000/svg">
<path d="M93.6049 120.891H228.731C228.731 158.049 198.607 188.167 161.455 188.167H91.127C30.6058 188.167 26.3347 246.617 26.3347 246.617V188.167C26.3347 151.01 56.4589 120.891 93.6107 120.891H93.6049ZM52.652 264.589V300C52.652 300 55.2402 264.589 91.9046 264.589H134.511C157.022 264.589 175.273 246.338 175.273 223.828H93.4076C70.8972 223.828 52.6462 242.079 52.6462 264.589H52.652ZM0 87.2505V163.051C0 163.051 5.54202 87.2505 84.0297 87.2505H175.238C223.422 87.2505 262.483 48.1836 262.483 0H87.2505C39.0611 0 0 39.0611 0 87.2505Z" fill="black"/>
<path d="M499.672 64.4152H378.405V126.938H482.25V171.353H378.405V278.975H326.482V20H499.672V64.4152Z" fill="black"/>
<path d="M571.402 202.786C571.402 225.563 582.333 236.951 604.195 236.951C613.76 236.724 621.275 233.421 626.74 227.043C632.206 220.438 634.711 211.327 634.256 199.711V109.855H686.178V279.658H634.256V259.159C629.246 265.992 622.755 271.003 614.785 274.192C607.042 277.608 598.73 279.317 589.848 279.317C568.441 279.317 551.361 272.597 538.609 259.159C525.856 245.493 519.479 226.702 519.479 202.786V109.855H571.402V202.786Z" fill="black"/>
<path d="M837.244 193.561C837.244 180.123 834.625 170.101 829.387 163.495C824.149 156.89 815.837 153.587 804.451 153.587C795.797 153.815 788.51 157.459 782.589 164.52C776.668 171.353 773.935 181.034 774.39 193.561V279.658H722.468V109.855H774.39V134.113C779.4 126.824 786.005 121.13 794.203 117.03C802.401 112.93 810.599 110.88 818.798 110.88C828.59 110.88 838.724 113.158 849.2 117.714C859.903 122.269 869.24 130.696 877.211 142.996C885.181 155.296 889.167 172.151 889.167 193.561V279.658H837.244V193.561Z" fill="black"/>
<path d="M1040.24 193.561C1040.24 180.123 1037.62 170.101 1032.38 163.495C1027.15 156.89 1018.83 153.587 1007.45 153.587C998.793 153.815 991.506 157.459 985.585 164.52C979.664 171.353 976.931 181.034 977.387 193.561V279.658H925.464V109.855H977.387V134.113C982.397 126.824 989.001 121.13 997.199 117.03C1005.4 112.93 1013.6 110.88 1021.79 110.88C1031.59 110.88 1041.72 113.158 1052.2 117.714C1062.9 122.269 1072.24 130.696 1080.21 142.996C1088.18 155.296 1092.16 172.151 1092.16 193.561V279.658H1040.24V193.561Z" fill="black"/>
<path d="M1201.3 279.658C1185.36 279.658 1171.13 276.128 1158.6 269.067C1146.08 261.778 1136.28 251.756 1129.22 239.001C1122.16 226.018 1118.63 211.327 1118.63 194.928C1118.63 178.3 1122.16 163.609 1129.22 150.854C1136.28 137.871 1146.08 127.735 1158.6 120.447C1171.13 113.158 1185.36 109.514 1201.3 109.514C1234.09 109.514 1258.12 124.774 1273.38 155.296C1278.62 165.318 1281.23 179.667 1281.23 198.344L1280.89 212.352H1167.14C1169.19 219.869 1173.52 225.905 1180.12 230.46C1186.95 234.788 1194.13 236.951 1201.64 236.951C1209.84 236.951 1216.44 235.585 1221.45 232.852C1226.69 229.891 1230.34 226.474 1232.39 222.602L1275.09 238.66C1270.53 249.82 1261.88 259.501 1249.12 267.7C1236.6 275.672 1220.66 279.658 1201.3 279.658ZM1233.41 181.945C1231.36 172.378 1227.6 164.976 1222.14 159.737C1216.67 154.498 1209.73 151.879 1201.3 151.879C1192.65 151.879 1185.36 154.498 1179.44 159.737C1173.52 164.976 1169.53 172.378 1167.48 181.945H1233.41Z" fill="black"/>
<path d="M1359.96 29.5664V278.975H1308.03V29.5664H1359.96Z" fill="black"/>
<path d="M1609.84 192.536C1609.84 180.92 1607.34 171.581 1602.33 164.52C1597.55 157.459 1591.17 153.929 1583.2 153.929C1575.46 153.929 1568.97 157.801 1563.73 165.545C1558.72 173.062 1556.21 182.059 1556.21 192.536V279.658H1504.29V192.536C1504.29 180.92 1501.9 171.581 1497.12 164.52C1492.34 157.459 1486.07 153.929 1478.33 153.929C1470.13 153.929 1463.41 157.459 1458.18 164.52C1453.17 171.581 1450.66 180.92 1450.66 192.536V279.658H1398.74V109.855H1450.66V134.455C1455.44 126.71 1461.25 120.902 1468.08 117.03C1475.14 112.93 1482.54 110.88 1490.29 110.88C1499.17 110.88 1507.93 114.069 1516.59 120.447C1525.24 126.824 1532.3 134.569 1537.77 143.679C1544.37 134.796 1552.8 127.166 1563.05 120.788C1573.52 114.183 1583.31 110.88 1592.42 110.88C1614.06 110.88 1631.02 118.397 1643.32 133.43C1655.62 148.463 1661.77 168.165 1661.77 192.536V279.658H1609.84V192.536Z" fill="black"/>
<path d="M1768.8 280C1753.31 280 1739.76 276.47 1728.15 269.409C1716.53 262.12 1707.54 252.098 1701.16 239.343C1694.78 226.36 1691.6 211.555 1691.6 194.928C1691.6 178.3 1694.78 163.609 1701.16 150.854C1707.54 137.871 1716.53 127.849 1728.15 120.788C1739.76 113.5 1753.31 109.855 1768.8 109.855C1776.77 109.855 1784.85 111.564 1793.05 114.98C1801.25 118.169 1807.97 123.408 1813.2 130.696V109.514H1865.13V279.658H1813.2V259.501C1807.74 266.562 1800.91 271.686 1792.71 274.875C1784.74 278.292 1776.77 280 1768.8 280ZM1776.99 237.976C1787.02 237.976 1795.44 233.876 1802.27 225.677C1809.33 217.477 1812.98 207.227 1813.2 194.928C1812.98 182.628 1809.33 172.378 1802.27 164.179C1795.44 155.979 1787.02 151.879 1776.99 151.879C1766.29 151.879 1757.98 155.637 1752.06 163.154C1746.37 170.67 1743.52 181.261 1743.52 194.928C1743.52 208.594 1746.37 219.185 1752.06 226.702C1757.98 234.218 1766.29 237.976 1776.99 237.976Z" fill="black"/>
<path d="M2019.86 193.561C2019.86 180.123 2017.24 170.101 2012.01 163.495C2006.77 156.89 1998.46 153.587 1987.07 153.587C1978.41 153.815 1971.13 157.459 1965.21 164.52C1959.29 171.353 1956.55 181.034 1957.01 193.561V279.658H1905.09V109.855H1957.01V134.113C1962.02 126.824 1968.62 121.13 1976.82 117.03C1985.02 112.93 1993.22 110.88 2001.42 110.88C2011.21 110.88 2021.34 113.158 2031.82 117.714C2042.52 122.269 2051.86 130.696 2059.83 142.996C2067.8 155.296 2071.78 172.151 2071.78 193.561V279.658H2019.86V193.561Z" fill="black"/>
<path d="M2175.8 230.802C2180.58 230.802 2185.59 229.435 2190.83 226.702C2196.29 223.741 2201.3 219.869 2205.86 215.085L2239.34 251.643C2232.28 259.842 2222.82 266.562 2210.98 271.8C2199.14 277.039 2187.75 279.658 2176.82 279.658C2160.2 279.658 2145.4 276.014 2132.42 268.725C2119.43 261.437 2109.3 251.415 2102.01 238.66C2094.73 225.677 2091.08 210.986 2091.08 194.586C2091.08 177.959 2094.73 163.268 2102.01 150.512C2109.3 137.53 2119.43 127.394 2132.42 120.105C2145.4 112.816 2160.2 109.172 2176.82 109.172C2188.89 109.172 2200.39 111.678 2211.32 116.689C2222.26 121.7 2231.59 128.533 2239.34 137.188L2205.86 173.403C2201.3 168.62 2196.29 164.862 2190.83 162.129C2185.59 159.396 2180.58 158.029 2175.8 158.029C2165.32 158.029 2157.24 161.218 2151.54 167.595C2145.85 173.973 2143 182.97 2143 194.586C2143 205.975 2145.85 214.858 2151.54 221.235C2157.24 227.613 2165.32 230.802 2175.8 230.802Z" fill="black"/>
<path d="M2336.55 279.658C2320.61 279.658 2306.37 276.128 2293.85 269.067C2281.32 261.778 2271.53 251.756 2264.47 239.001C2257.41 226.018 2253.88 211.327 2253.88 194.928C2253.88 178.3 2257.41 163.609 2264.47 150.854C2271.53 137.871 2281.32 127.735 2293.85 120.447C2306.37 113.158 2320.61 109.514 2336.55 109.514C2369.34 109.514 2393.37 124.774 2408.63 155.296C2413.86 165.318 2416.48 179.667 2416.48 198.344L2416.14 212.352H2302.39C2304.44 219.869 2308.77 225.905 2315.37 230.46C2322.2 234.788 2329.38 236.951 2336.89 236.951C2345.09 236.951 2351.69 235.585 2356.7 232.852C2361.94 229.891 2365.58 226.474 2367.63 222.602L2410.33 238.66C2405.78 249.82 2397.13 259.501 2384.37 267.7C2371.85 275.672 2355.91 279.658 2336.55 279.658ZM2368.66 181.945C2366.61 172.378 2362.85 164.976 2357.39 159.737C2351.92 154.498 2344.97 151.879 2336.55 151.879C2327.89 151.879 2320.61 154.498 2314.69 159.737C2308.77 164.976 2304.78 172.378 2302.73 181.945H2368.66Z" fill="black"/>
</svg>
