<svg width="263" height="300" viewBox="0 0 263 300" fill="none" xmlns="http://www.w3.org/2000/svg">
<path d="M93.6049 120.891H228.731C228.731 158.049 198.607 188.167 161.455 188.167H91.127C30.6058 188.167 26.3347 246.617 26.3347 246.617V188.167C26.3347 151.01 56.4589 120.891 93.6107 120.891H93.6049ZM52.652 264.589V300C52.652 300 55.2402 264.589 91.9046 264.589H134.511C157.022 264.589 175.273 246.338 175.273 223.828H93.4076C70.8972 223.828 52.6462 242.079 52.6462 264.589H52.652ZM0 87.2505V163.051C0 163.051 5.54202 87.2505 84.0297 87.2505H175.238C223.422 87.2505 262.483 48.1836 262.483 0H87.2505C39.061 0 0 39.061 0 87.2505Z" fill="url(#paint0_linear_4961_4612)"/>
<defs>
<linearGradient id="paint0_linear_4961_4612" x1="0" y1="150" x2="262.483" y2="150" gradientUnits="userSpaceOnUse">
<stop stop-color="#001245"/>
<stop offset="0.52" stop-color="#15458B"/>
</linearGradient>
</defs>
</svg>
